<svg width="310" height="48" viewBox="0 0 310 48" fill="none" xmlns="http://www.w3.org/2000/svg">
<path d="M11.7466 35.0959V37.5328H6.87781C6.71268 37.5378 6.54505 37.5428 6.37992 37.5428C2.3318 37.5428 0 35.4787 0 32.3063C0 28.2932 4.04813 26.5718 9.89764 26.2291C12.8824 26.0339 14.3686 25.5761 14.3686 24.3201C14.3686 21.9132 12.1494 20.1119 9.21211 20.1119C9.09702 20.1119 6.37242 20.1269 6.37242 20.1269V17.6299H9.29217C13.2152 17.6299 16.0124 19.5739 16.9606 22.7514C17.2033 23.5845 17.3234 24.4452 17.3184 25.3134V34.4104H19.9554V37.125L14.7589 37.165V35.1009H11.7491V32.1011H14.5187V27.4951C13.9808 27.9929 12.2269 28.4158 9.93266 28.5634C5.03889 28.9061 3.01483 30.0145 3.01483 32.1586C3.01483 34.0676 4.46595 35.1034 6.87531 35.1034H11.7491V35.0934L11.7466 35.0959Z" fill="white"/>
<path d="M6.3599 20.1269H3.86298V22.6238H6.3599V20.1269Z" fill="white"/>
<path d="M3.86548 22.6238H1.36856V25.1207H3.86548V22.6238Z" fill="white"/>
<path d="M40.7623 10.0769V37.1089H37.944V33.4533C36.4189 35.9303 33.7925 37.4852 30.558 37.4852C25.1531 37.4852 21.0763 33.2191 21.0763 27.5874C21.0763 21.9557 25.1481 17.6896 30.558 17.6896C30.8495 17.6896 36.404 17.7295 36.404 17.7295V20.4681H30.9193C27.0992 20.503 24.1638 23.573 24.1638 27.5874C24.1638 31.6019 27.1316 34.7068 30.9791 34.7068C33.1246 34.7242 35.1481 33.7025 36.4089 31.9682C37.2587 30.7795 37.7072 29.3517 37.6923 27.8914V23.2092H36.4089V20.4706H37.7571V10.0769H40.7648H40.7623Z" fill="white"/>
<path d="M49.3404 28.8671H46.5912V31.6163H49.3404V28.8671Z" fill="white"/>
<path d="M63.0216 37.1198L57.8258 37.1598V33.49C56.3348 35.9366 53.0878 37.5426 49.4555 37.5426C48.77 37.5476 48.0871 37.48 47.4167 37.3424C45.1602 36.8371 43.5617 34.8259 43.5767 32.5144V31.6188H46.5912V33.1548C46.5912 33.6926 46.8638 34.1904 47.3166 34.4781C47.9695 34.8859 48.8626 35.0985 49.9533 35.0985C53.9608 35.0985 57.2179 32.3043 57.5656 28.8671H49.3404L49.3404 26.1178H54.2785C56.1597 26.1178 57.1178 25.5199 57.3805 24.7395C57.4255 24.6044 57.448 24.4593 57.4455 24.3167C57.4455 24.084 57.4255 23.8489 57.3805 23.6212C57.2054 22.7182 56.7151 21.9102 55.9971 21.3348C55.0765 20.5693 53.7732 20.1115 52.2873 20.1115C49.2278 20.1115 47.1315 21.7926 46.5936 24.6219H43.7293C44.3822 20.3066 47.6668 17.6299 52.3673 17.6299C56.4949 17.6299 59.3693 19.7788 60.1698 23.2535C60.2573 23.6438 60.3199 24.039 60.3549 24.4368C60.3799 24.7194 60.3949 25.0146 60.3949 25.3123V34.4081H63.0216V37.1198Z" fill="white"/>
<g opacity="0.15">
<path d="M62.1195 32.7701H62.1722V33.0504H62.5577V32.7701H62.6104V33.3783H62.5577V33.098H62.1722V33.3783H62.1195V32.7701Z" fill="white"/>
<path d="M62.3658 33.7298C62.0023 33.7298 61.7084 33.436 61.7084 33.0741C61.7084 32.7123 62.0023 32.4167 62.3658 32.4167C62.7293 32.4167 63.0232 32.7106 63.0232 33.0741C63.0232 33.4377 62.7293 33.7315 62.3658 33.7315V33.7298ZM62.3658 32.4762C62.0362 32.4762 61.7679 32.7446 61.7679 33.0741C61.7679 33.4037 62.0362 33.6704 62.3641 33.6704C62.6919 33.6704 62.9603 33.402 62.9603 33.0741C62.9603 32.7463 62.6936 32.4762 62.3658 32.4762Z" fill="white"/>
</g>
<path d="M89.0231 47.6197L89.0231 0" stroke="white" stroke-width="1.03484"/>
<g clip-path="url(#clip0_41_3368)">
<path d="M148.306 0.00500562C149.779 2.2986 151.254 4.59119 152.725 6.88598C156.11 12.1668 159.494 17.4488 162.878 22.7303C162.936 22.8214 162.993 22.9133 163.089 23.0648C162.554 23.0648 162.076 23.0132 161.614 23.0769C160.921 23.1722 160.576 22.8859 160.234 22.2891C156.13 15.1261 151.992 7.98239 147.862 0.833912C147.803 0.731705 147.738 0.633092 147.657 0.503068C147.156 1.52308 146.669 2.51201 146.184 3.50173C145.168 5.57414 144.15 7.64541 143.143 9.72208C143.045 9.92476 142.935 9.99826 142.709 9.99295C142.034 9.97703 141.358 9.98722 140.634 9.98722C140.719 9.84345 140.776 9.74017 140.84 9.64107C142.84 6.51742 144.84 3.39433 146.839 0.270044C146.891 0.188027 146.925 0.0936296 146.967 0.00500493C147.413 0.00500483 147.86 0.00500483 148.306 0.00500562Z" fill="white"/>
<path d="M176.129 47.6148C175.265 46.257 174.404 44.8974 173.537 43.5419C171.833 40.8798 170.126 38.22 168.42 35.5592C168.371 35.4835 168.324 35.407 168.24 35.2739C168.383 35.3244 168.467 35.3585 168.554 35.3844C169.037 35.5288 169.517 35.6856 170.005 35.8073C170.208 35.8577 170.338 35.9365 170.445 36.1215C172.496 39.6843 174.554 43.243 176.611 46.8025C176.662 46.8897 176.714 46.976 176.791 47.1062C176.858 46.9868 176.912 46.8984 176.958 46.8054C178.409 43.8431 179.862 40.8811 181.307 37.9157C181.406 37.7116 181.511 37.6166 181.758 37.6249C182.427 37.6474 183.096 37.6326 183.827 37.6326C183.746 37.7642 183.689 37.8628 183.627 37.959C181.629 41.082 179.631 44.2048 177.633 47.3281C177.574 47.4209 177.523 47.5191 177.469 47.6148H176.129Z" fill="white"/>
<path d="M123.866 16.5497C123.841 13.5521 126.27 11.0837 129.232 11.0201C132.654 10.9466 135.103 13.6415 135.105 16.5871C135.107 19.6697 132.646 22.2 129.589 22.2254C126.373 22.2521 123.893 19.7925 123.866 16.5497ZM129.473 20.13C131.503 20.1104 133.046 18.5614 133.028 16.5604C133.011 14.6639 131.407 13.1108 129.489 13.1338C127.492 13.1578 125.989 14.727 126.008 16.7694C126.026 18.6723 127.548 20.1487 129.473 20.13Z" fill="white"/>
<path d="M143.703 11.2186H152.148V13.2686H145.83V15.5482H149.321V17.6428H145.831V19.9767H152.148V22.0312H143.703V11.2186Z" fill="white"/>
<path d="M178.508 30.9366V35.3113H176.398V24.4882H178.496V28.8019H182.956V24.4909H185.081V35.3111H182.97V30.9366H178.508Z" fill="white"/>
<path d="M117.131 19.0088V22.0367H115.023V11.2141C115.126 11.2095 115.225 11.2014 115.324 11.2011C116.835 11.1978 118.347 11.1946 119.859 11.193C121.961 11.1908 123.605 12.8704 123.657 14.9806C123.708 17.0506 122.339 18.5389 120.758 18.9014C120.426 18.9776 120.077 18.9985 119.734 19.0041C118.883 19.0182 118.032 19.0088 117.131 19.0088ZM117.142 16.9282C118.035 16.9282 118.895 16.9335 119.755 16.9268C120.676 16.9197 121.408 16.2409 121.507 15.3151C121.61 14.3616 121.048 13.5384 120.147 13.3267C120.049 13.3036 119.948 13.28 119.849 13.2796C118.95 13.2759 118.052 13.2774 117.142 13.2774V16.9282Z" fill="white"/>
<path d="M185.122 22.0575C184.449 22.0575 183.782 22.0627 183.115 22.0492C183.05 22.0479 182.957 21.9424 182.929 21.8663C182.795 21.4957 182.672 21.1203 182.557 20.7431C182.51 20.5892 182.449 20.5127 182.265 20.5141C181.059 20.5236 179.852 20.5219 178.645 20.5156C178.483 20.5148 178.416 20.573 178.372 20.7242C178.26 21.1024 178.137 21.4777 178.001 21.8476C177.97 21.9314 177.868 22.047 177.796 22.0487C177.149 22.0644 176.501 22.0579 175.816 22.0579C176.055 21.3256 176.283 20.6263 176.513 19.9281C177.439 17.1235 178.37 14.3205 179.287 11.5129C179.367 11.2667 179.474 11.1851 179.729 11.1944C180.276 11.2146 180.824 11.2044 181.372 11.1981C181.518 11.1965 181.612 11.2206 181.665 11.3819C182.811 14.902 183.963 18.4204 185.113 21.9395C185.122 21.9668 185.118 21.9983 185.122 22.0575ZM180.496 14.4454C180.472 14.4459 180.448 14.4464 180.424 14.4469C179.992 15.7732 179.56 17.0996 179.123 18.441H181.799C181.359 17.0934 180.928 15.7694 180.496 14.4454Z" fill="white"/>
<path d="M175.585 26.6511C175.027 27.0675 174.468 27.485 173.883 27.9222C173.11 26.8259 172.072 26.2841 170.731 26.4297C169.814 26.5293 169.059 26.9557 168.463 27.6598C167.216 29.1352 167.421 31.3301 168.911 32.5876C170.22 33.6928 172.522 33.836 173.886 31.8796C174.454 32.2983 175.021 32.7166 175.586 33.1336C174.504 34.8811 172.19 35.9738 169.619 35.3097C167.167 34.6767 165.449 32.4295 165.457 29.8869C165.465 27.3375 167.194 25.1044 169.643 24.4824C172.245 23.8215 174.549 24.971 175.585 26.6511Z" fill="white"/>
<path d="M172.486 13.3795C171.913 13.8073 171.354 14.2238 170.777 14.6544C170.097 13.6745 169.193 13.1322 168.006 13.1365C167.011 13.1401 166.171 13.523 165.491 14.2434C164.121 15.6946 164.257 17.9888 165.776 19.2889C167.168 20.4807 169.466 20.5119 170.778 18.6037C171.344 19.0212 171.91 19.4381 172.474 19.8537C171.59 21.3852 169.462 22.5918 166.974 22.1395C164.385 21.6688 162.569 19.5419 162.373 17.1149C162.139 14.2231 164.006 11.972 166.324 11.2728C168.702 10.5552 171.349 11.454 172.486 13.3795Z" fill="white"/>
<path d="M162.152 26.5532H159.766V28.8223C160.04 28.8223 160.309 28.8223 160.579 28.8223C161.208 28.8223 161.837 28.817 162.465 28.829C162.547 28.8306 162.695 28.9199 162.696 28.9715C162.712 29.607 162.707 30.2431 162.707 30.9117H159.767V33.2499H160.093C161.513 33.2499 162.933 33.2534 164.353 33.2455C164.536 33.2445 164.645 33.2996 164.748 33.451C165.163 34.0613 165.593 34.662 166.043 35.3041H157.644V24.4693C158.353 24.4693 159.05 24.4671 159.747 24.4702C160.102 24.4718 160.517 24.3708 160.792 24.5217C161.067 24.6725 161.203 25.0785 161.396 25.3752C161.638 25.7472 161.876 26.1218 162.152 26.5532Z" fill="white"/>
<path d="M143.284 11.2237V13.2744H140.124V22.0437H137.992V13.289H134.837V11.2237H143.284Z" fill="white"/>
<path d="M156.681 26.5469H153.551V35.303H151.405V26.552H148.241V24.4932H156.681V26.5469Z" fill="white"/>
<path d="M172.935 22.0338V11.2244H175.048V22.0338H172.935Z" fill="white"/>
<path d="M155.168 22.0418H153.08V11.5842C153.15 11.6733 153.2 11.7263 153.237 11.7875C153.852 12.8006 154.467 13.8136 155.075 14.8304C155.134 14.9292 155.183 15.0533 155.183 15.1657C155.189 17.4169 155.187 19.6681 155.186 21.9193C155.186 21.9488 155.178 21.9783 155.168 22.0418Z" fill="white"/>
<path d="M161.856 20.4179C161.144 19.2798 160.477 18.2159 159.815 17.1491C159.775 17.085 159.755 16.998 159.755 16.9215C159.752 15.0547 159.753 13.1878 159.754 11.3209C159.754 11.2924 159.767 11.264 159.777 11.2188H161.856V20.4179Z" fill="white"/>
<path d="M165.077 30.3413C163.833 28.3998 162.622 26.5096 161.369 24.555C161.565 24.555 161.709 24.555 161.852 24.555C162.409 24.555 162.967 24.5451 163.524 24.5632C163.638 24.5669 163.798 24.6455 163.854 24.7393C164.388 25.6338 164.906 26.5375 165.42 27.4436C165.468 27.5284 165.495 27.6616 165.464 27.7492C165.188 28.5435 165.074 29.3586 165.107 30.1969C165.108 30.2234 165.097 30.2505 165.077 30.3413Z" fill="white"/>
<path d="M260.234 15.5498L258.029 26.6163H261.97L264.176 15.5498H260.234ZM265.158 10.6242H261.214L260.583 13.8122H264.523L265.158 10.6242ZM273.19 15.5498H270.29L270.389 15.0387C270.575 14.095 270.876 12.9976 272.362 12.9976C273.242 12.9976 274.086 13.0948 274.905 13.4457L275.353 11.1151C274.455 10.7892 273.473 10.624 272.514 10.624C269.348 10.624 267.165 12.545 266.366 15.5498H264.997L264.57 17.7557H265.918L263.529 29.7321H267.471L269.862 17.7557H272.738L273.19 15.5498ZM271.355 23.1659C271.355 25.7384 273.767 26.8628 276.014 26.8628C280.668 26.8628 283.897 22.5324 283.897 19.0003C283.897 16.4278 281.51 15.3031 279.241 15.3031C274.134 15.3031 271.355 19.9597 271.355 23.1659ZM291.671 15.3031C286.567 15.3031 283.786 19.9597 283.786 23.1659C283.786 25.7384 286.201 26.8628 288.447 26.8628C293.101 26.8628 296.33 22.5324 296.33 19.0003C296.33 16.4278 293.938 15.3031 291.671 15.3031ZM305.863 10.6242L304.923 15.3032C304.412 15.1991 303.88 15.1177 303.331 15.1177C299.469 15.1177 295.959 20.1204 295.959 23.6953C295.959 25.1659 296.898 26.6162 298.491 26.6162C300.756 26.6162 302.324 25.4872 302.977 24.4286H303.222L302.738 26.3698H306.657L309.806 10.6242H305.863ZM288.221 31.791C285.838 34.1193 281.496 35.7504 277.953 35.3521C274.324 34.9428 271.432 32.4537 270.245 29.7548H269.995C270.731 33.979 274.392 38.1442 279.673 38.4748C283.861 38.7398 287.714 37.4565 290.597 34.9562L291.778 38.3144L293.486 29.7548L285.549 29.7319L288.221 31.791Z" fill="white"/>
<path d="M197.052 18.4899C197.052 17.7815 197.033 17.2045 197.006 16.6801H197.909L197.965 17.6271H197.988C198.392 16.9493 199.057 16.5538 199.96 16.5538C201.305 16.5538 202.318 17.6865 202.318 19.3728C202.318 21.3753 201.094 22.362 199.792 22.362C199.049 22.362 198.411 22.0388 198.08 21.4868H198.057V24.5102H197.052V18.4899ZM198.057 19.9747C198.057 20.1171 198.071 20.256 198.1 20.3856C198.282 21.0916 198.894 21.5706 199.611 21.5706C200.682 21.5706 201.3 20.6917 201.3 19.4183C201.3 18.3098 200.72 17.3566 199.65 17.3566C198.962 17.3566 198.313 17.8437 198.122 18.6032C198.089 18.7335 198.057 18.8807 198.057 19.0137V19.9747Z" fill="white"/>
<path d="M208.63 19.4044C208.63 21.4619 207.203 22.362 205.867 22.362C204.36 22.362 203.197 21.2639 203.197 19.5001C203.197 17.6409 204.419 16.5538 205.956 16.5538C207.553 16.5538 208.63 17.7123 208.63 19.4044ZM204.225 19.4691C204.225 20.6878 204.923 21.605 205.909 21.605C206.878 21.605 207.602 20.6999 207.602 19.439C207.602 18.4992 207.128 17.3108 205.927 17.3108C204.741 17.3108 204.225 18.4158 204.225 19.4691Z" fill="white"/>
<path d="M210.222 16.6801L210.968 19.4991C211.128 20.1194 211.269 20.7005 211.381 21.2721H211.409C211.533 20.7126 211.717 20.1091 211.907 19.5074L212.814 16.6801H213.664L214.529 19.4586C214.727 20.1174 214.891 20.7065 215.02 21.2721H215.047C215.148 20.7094 215.297 20.1241 215.478 19.4674L216.271 16.6801H217.267L215.473 22.2357H214.555L213.711 19.5845C213.51 18.9614 213.353 18.4055 213.218 17.753H213.195C213.055 18.4237 212.882 18.9996 212.686 19.5934L211.793 22.2357H210.869L209.194 16.6801H210.222Z" fill="white"/>
<path d="M218.732 19.6403C218.752 21.006 219.618 21.5691 220.633 21.5691C221.356 21.5691 221.798 21.4394 222.172 21.2846L222.349 22.0022C221.996 22.1638 221.378 22.3563 220.495 22.3563C218.788 22.3563 217.762 21.219 217.762 19.5523C217.762 17.8687 218.753 16.5538 220.376 16.5538C222.188 16.5538 222.662 18.1439 222.662 19.1667C222.662 19.3788 222.65 19.5305 222.628 19.6403H218.732ZM221.689 18.9135C221.699 18.2769 221.428 17.2778 220.295 17.2778C219.264 17.2778 218.825 18.2102 218.744 18.9135H221.689Z" fill="white"/>
<path d="M223.919 18.4104C223.919 17.7545 223.903 17.1953 223.873 16.6801H224.759L224.797 17.77H224.833C225.092 17.0245 225.705 16.5538 226.38 16.5538C226.49 16.5538 226.569 16.5606 226.661 16.5821V17.5324C226.558 17.511 226.456 17.5031 226.317 17.5031C225.605 17.5031 225.102 18.0399 224.965 18.7957C224.939 18.9375 224.924 19.1033 224.924 19.2674V22.2357H223.919V18.4104Z" fill="white"/>
<path d="M228.128 19.6403C228.147 21.006 229.014 21.5691 230.029 21.5691C230.752 21.5691 231.194 21.4394 231.568 21.2846L231.745 22.0022C231.391 22.1638 230.774 22.3563 229.891 22.3563C228.184 22.3563 227.157 21.219 227.157 19.5523C227.157 17.8687 228.149 16.5538 229.772 16.5538C231.584 16.5538 232.058 18.1439 232.058 19.1667C232.058 19.3788 232.046 19.5305 232.024 19.6403H228.128ZM231.085 18.9135C231.095 18.2769 230.824 17.2778 229.691 17.2778C228.66 17.2778 228.221 18.2102 228.14 18.9135H231.085Z" fill="white"/>
<path d="M238.112 14.0793V20.8027C238.112 21.2966 238.131 21.8522 238.158 22.2357H237.26L237.208 21.275H237.181C236.872 21.8956 236.204 22.362 235.297 22.362C233.95 22.362 232.912 21.2238 232.912 19.5393C232.903 17.6823 234.056 16.5537 235.408 16.5537C236.261 16.5537 236.836 16.9534 237.084 17.3965H237.107V14.0793H238.112ZM237.107 18.9405C237.107 18.809 237.095 18.641 237.065 18.5087C236.908 17.8714 236.363 17.3461 235.602 17.3461C234.555 17.3461 233.93 18.2637 233.93 19.4845C233.93 20.613 234.492 21.5498 235.581 21.5498C236.257 21.5498 236.871 21.0932 237.058 20.3367C237.094 20.2037 237.107 20.0615 237.107 19.9033V18.9405Z" fill="white"/>
<path d="M242.182 22.2357C242.209 21.854 242.228 21.2966 242.228 20.8027V14.0793H243.233V17.5717H243.256C243.61 16.9467 244.254 16.5537 245.15 16.5537C246.53 16.5537 247.5 17.7007 247.495 19.3829C247.495 21.3757 246.233 22.362 244.993 22.362C244.192 22.362 243.551 22.0472 243.132 21.3222H243.105L243.054 22.2357H242.182ZM243.233 20.0091C243.233 20.1334 243.247 20.2603 243.275 20.3749C243.464 21.077 244.06 21.5576 244.79 21.5576C245.853 21.5576 246.477 20.6973 246.477 19.4216C246.477 18.3046 245.9 17.3486 244.819 17.3486C244.135 17.3486 243.493 17.8281 243.291 18.5907C243.259 18.714 243.233 18.8506 243.233 19.0108V20.0091Z" fill="white"/>
<path d="M249.051 16.6801L250.265 19.9639C250.395 20.3311 250.531 20.7667 250.622 21.0975H250.65C250.749 20.7705 250.872 20.3448 251.005 19.9415L252.104 16.6801H253.176L251.656 20.6375C250.936 22.5478 250.441 23.5202 249.753 24.122C249.253 24.5542 248.761 24.7259 248.514 24.7708L248.263 23.9261C248.517 23.8461 248.845 23.6883 249.148 23.4326C249.42 23.2118 249.759 22.8206 249.993 22.3072C250.044 22.2007 250.071 22.1259 250.071 22.0636C250.071 22.0068 250.055 21.9266 250.001 21.8043L247.952 16.6801H249.051Z" fill="white"/>
</g>
<defs>
<clipPath id="clip0_41_3368">
<rect width="194.783" height="47.6097" fill="white" transform="translate(115.023 0.00500488)"/>
</clipPath>
</defs>
</svg>
