<svg width="256" height="127" viewBox="0 0 256 127" fill="none" xmlns="http://www.w3.org/2000/svg">
<path d="M21.5929 35.8303C21.4527 36.2041 21.1957 36.391 20.8218 36.391H15.6347C15.2608 36.391 15.0038 36.2041 14.8636 35.8303L0.914305 1.62297L0.844208 1.34258C0.844208 1.15566 0.890939 1.01547 0.984402 0.922003C1.1246 0.82854 1.28815 0.781809 1.47508 0.781809H6.87254C7.24639 0.781809 7.50341 0.968735 7.64361 1.34258L18.4385 29.1711L29.1634 1.34258C29.3036 0.968735 29.5606 0.781809 29.9344 0.781809H34.9113C35.145 0.781809 35.3085 0.87527 35.402 1.06219C35.5422 1.20239 35.5655 1.38931 35.4721 1.62297L21.5929 35.8303Z" fill="#F5F0EB"/>
<path d="M56.4311 37.1621C53.0664 37.1621 50.0289 36.391 47.3185 34.8489C44.6548 33.26 42.5752 31.0637 41.0798 28.2598C39.5844 25.4092 38.8367 22.1614 38.8367 18.5163C38.8367 15.1049 39.5611 11.9973 41.0097 9.19344C42.5051 6.34283 44.5379 4.09973 47.1082 2.46413C49.7251 0.828539 52.6458 0.0107422 55.8703 0.0107422C58.9078 0.0107422 61.5949 0.735076 63.9314 2.18375C66.3147 3.63242 68.1606 5.64186 69.4691 8.21208C70.7776 10.7356 71.4318 13.5862 71.4318 16.7639C71.4318 17.5116 71.3617 18.4229 71.2215 19.4977C71.2215 19.9183 70.9878 20.1286 70.5205 20.1286H45.1455C45.4726 23.6334 46.6642 26.3905 48.7204 28.4C50.8233 30.3627 53.3935 31.3441 56.4311 31.3441C60.4032 31.3441 63.3707 29.7786 65.3334 26.6476C65.4268 26.4606 65.567 26.3438 65.7539 26.2971C65.9409 26.2504 66.1278 26.2737 66.3147 26.3672L70.17 28.3299C70.5439 28.5636 70.6841 28.8206 70.5906 29.101C69.2822 31.531 67.4129 33.4937 64.9829 34.9891C62.5996 36.4378 59.749 37.1621 56.4311 37.1621ZM65.1932 14.661C64.9128 11.9039 63.9081 9.75421 62.179 8.21208C60.4499 6.62322 58.3003 5.82878 55.7301 5.82878C53.1599 5.82878 50.9401 6.64658 49.0709 8.28218C47.2484 9.87104 46.0334 11.9973 45.4258 14.661H65.1932Z" fill="#F5F0EB"/>
<path d="M86.783 35.6901C86.783 35.877 86.7129 36.0406 86.5727 36.1807C86.4793 36.3209 86.3157 36.391 86.082 36.391H81.1753C80.9883 36.391 80.8248 36.3209 80.6846 36.1807C80.5444 36.0406 80.4743 35.877 80.4743 35.6901V1.48278C80.4743 1.24912 80.5444 1.08556 80.6846 0.992099C80.8248 0.851905 80.9883 0.781809 81.1753 0.781809H85.8718C86.1054 0.781809 86.269 0.851905 86.3624 0.992099C86.5026 1.08556 86.5727 1.24912 86.5727 1.48278V6.10917C90.2178 2.09028 94.1666 0.0808383 98.4191 0.0808383C100.989 0.0808383 103.186 0.664979 105.008 1.83326C106.831 2.95481 108.233 4.54368 109.214 6.59985C111.177 4.49694 113.186 2.88472 115.242 1.76317C117.345 0.641615 119.565 0.0808383 121.902 0.0808383C125.874 0.0808383 128.958 1.31922 131.154 3.79597C133.351 6.27273 134.449 9.61402 134.449 13.8198V35.6901C134.449 35.877 134.379 36.0406 134.239 36.1807C134.145 36.3209 133.982 36.391 133.748 36.391H128.841C128.654 36.391 128.491 36.3209 128.35 36.1807C128.21 36.0406 128.14 35.877 128.14 35.6901V14.1703C128.14 11.6001 127.533 9.59065 126.318 8.14199C125.149 6.64658 123.42 5.89888 121.13 5.89888C117.485 5.89888 113.957 8.02515 110.546 12.2777C110.593 12.6048 110.616 13.1189 110.616 13.8198V35.6901C110.616 35.877 110.546 36.0406 110.406 36.1807C110.312 36.3209 110.149 36.391 109.915 36.391H105.008C104.821 36.391 104.658 36.3209 104.518 36.1807C104.377 36.0406 104.307 35.877 104.307 35.6901V14.1703C104.307 11.6001 103.723 9.59065 102.555 8.14199C101.433 6.64658 99.7977 5.89888 97.648 5.89888C93.9563 5.89888 90.3346 8.02515 86.783 12.2777V35.6901Z" fill="#F5F0EB"/>
<path d="M174.194 37.1621C171.156 37.1621 168.539 36.5312 166.343 35.2695C164.147 34.0077 162.394 32.1385 161.086 29.6617C161.039 29.5683 161.016 29.4514 161.016 29.3113C161.016 29.0309 161.156 28.8206 161.436 28.6804L165.221 26.6476C165.408 26.5541 165.549 26.5074 165.642 26.5074C165.876 26.5074 166.063 26.6242 166.203 26.8579C167.184 28.4 168.306 29.5449 169.567 30.2926C170.829 30.9936 172.325 31.3441 174.054 31.3441C176.203 31.3441 177.886 30.9001 179.101 30.0122C180.316 29.0776 180.923 27.8859 180.923 26.4373C180.923 25.0821 180.292 23.9839 179.031 23.1427C177.769 22.3016 175.759 21.5071 173.002 20.7594C169.497 19.7781 166.717 18.5397 164.661 17.0443C162.605 15.5489 161.576 13.3292 161.576 10.3851C161.576 8.37564 162.114 6.59985 163.189 5.05772C164.31 3.46886 165.806 2.23048 167.675 1.34258C169.544 0.454691 171.624 0.0107422 173.913 0.0107422C176.904 0.0107422 179.451 0.641613 181.554 1.90336C183.704 3.1651 185.363 4.96426 186.531 7.30082C186.578 7.39428 186.601 7.51111 186.601 7.6513C186.601 7.88496 186.461 8.07189 186.18 8.21208L182.255 10.2449C182.162 10.2916 182.045 10.315 181.905 10.315C181.624 10.315 181.414 10.1982 181.274 9.9645C180.432 8.51583 179.428 7.46438 178.259 6.81014C177.138 6.15591 175.689 5.82878 173.913 5.82878C172.184 5.82878 170.712 6.20264 169.497 6.95034C168.282 7.69804 167.675 8.70276 167.675 9.9645C167.675 11.1328 168.236 12.0674 169.357 12.7684C170.525 13.4693 172.278 14.147 174.614 14.8012C177.091 15.5956 179.194 16.4134 180.923 17.2546C182.652 18.0957 184.101 19.2874 185.269 20.8295C186.484 22.3249 187.092 24.2175 187.092 26.5074C187.092 29.7786 185.9 32.3722 183.517 34.2881C181.133 36.2041 178.026 37.1621 174.194 37.1621Z" fill="#F5F0EB"/>
<path d="M211.415 37.1621C208.051 37.1621 205.013 36.391 202.303 34.8489C199.639 33.26 197.56 31.0637 196.064 28.2598C194.569 25.4092 193.821 22.1614 193.821 18.5163C193.821 15.1049 194.545 11.9973 195.994 9.19344C197.489 6.34283 199.522 4.09973 202.092 2.46413C204.709 0.828539 207.63 0.0107422 210.855 0.0107422C213.892 0.0107422 216.579 0.735076 218.916 2.18375C221.299 3.63242 223.145 5.64186 224.453 8.21208C225.762 10.7356 226.416 13.5862 226.416 16.7639C226.416 17.5116 226.346 18.4229 226.206 19.4977C226.206 19.9183 225.972 20.1286 225.505 20.1286H200.13C200.457 23.6334 201.649 26.3905 203.705 28.4C205.808 30.3627 208.378 31.3441 211.415 31.3441C215.387 31.3441 218.355 29.7786 220.318 26.6476C220.411 26.4606 220.551 26.3438 220.738 26.2971C220.925 26.2504 221.112 26.2737 221.299 26.3672L225.154 28.3299C225.528 28.5636 225.668 28.8206 225.575 29.101C224.266 31.531 222.397 33.4937 219.967 34.9891C217.584 36.4378 214.733 37.1621 211.415 37.1621ZM220.177 14.661C219.897 11.9039 218.892 9.75421 217.163 8.21208C215.434 6.62322 213.285 5.82878 210.714 5.82878C208.144 5.82878 205.924 6.64658 204.055 8.28218C202.233 9.87104 201.018 11.9973 200.41 14.661H220.177Z" fill="#F5F0EB"/>
<path d="M241.767 35.6901C241.767 35.877 241.697 36.0406 241.557 36.1807C241.464 36.3209 241.3 36.391 241.066 36.391H236.16C235.973 36.391 235.809 36.3209 235.669 36.1807C235.529 36.0406 235.459 35.877 235.459 35.6901V1.48278C235.459 1.24912 235.529 1.08556 235.669 0.992099C235.809 0.851905 235.973 0.781809 236.16 0.781809H240.856C241.09 0.781809 241.253 0.851905 241.347 0.992099C241.487 1.08556 241.557 1.24912 241.557 1.48278V7.09053C243.426 5.26801 245.272 3.77261 247.095 2.60433C248.964 1.43605 250.973 0.571517 253.123 0.0107422H253.333C253.66 0.0107422 253.871 0.197666 253.964 0.571517L255.156 5.6185V5.75869C255.156 6.13254 254.969 6.36619 254.595 6.45966C252.118 6.92697 249.852 7.62794 247.796 8.56257C245.786 9.45046 243.777 10.7122 241.767 12.3478V35.6901Z" fill="#F5F0EB"/>
<path fill-rule="evenodd" clip-rule="evenodd" d="M41.7281 124.578C40.7975 125.508 39.6314 125.726 38.7692 125.726H27.9905C27.1283 125.726 25.9622 125.508 25.0316 124.578C24.101 123.647 23.8835 122.481 23.8835 121.619V72.1977H7.52939C6.66716 72.1977 5.50102 71.9803 4.57043 71.0497C3.63984 70.1191 3.42236 68.953 3.42236 68.0907V58.2255C3.42236 57.3633 3.63984 56.1972 4.57043 55.2666C5.50102 54.336 6.66716 54.1185 7.52939 54.1185H59.139C60.0012 54.1185 61.1673 54.336 62.0979 55.2666C63.0285 56.1972 63.246 57.3633 63.246 58.2255V68.0907C63.246 68.953 63.0285 70.1191 62.0979 71.0497C61.1673 71.9803 60.0012 72.1977 59.139 72.1977H42.8762V121.619C42.8762 122.481 42.6587 123.647 41.7281 124.578ZM7.52939 69.3695C6.67684 69.3695 6.25057 68.9433 6.25057 68.0907V58.2255C6.25057 57.373 6.67684 56.9467 7.52939 56.9467H59.139C59.9915 56.9467 60.4178 57.373 60.4178 58.2255V68.0907C60.4178 68.9433 59.9915 69.3695 59.139 69.3695H40.048V121.619C40.048 122.471 39.6217 122.897 38.7692 122.897H27.9905C27.138 122.897 26.7117 122.471 26.7117 121.619V69.3695H7.52939ZM118.914 124.578C117.984 125.508 116.817 125.726 115.955 125.726H73.0233C72.1611 125.726 70.995 125.508 70.0644 124.578C69.1338 123.647 68.9163 122.481 68.9163 121.619V58.2255C68.9163 57.3633 69.1338 56.1972 70.0644 55.2666C70.995 54.336 72.1611 54.1185 73.0233 54.1185H115.59C116.452 54.1185 117.618 54.336 118.549 55.2666C119.479 56.1972 119.697 57.3633 119.697 58.2255V67.8167C119.697 68.6789 119.479 69.8451 118.549 70.7756C117.618 71.7062 116.452 71.9237 115.59 71.9237H87.4523V80.6084H111.388C112.25 80.6084 113.416 80.8259 114.347 81.7564C115.278 82.687 115.495 83.8532 115.495 84.7154V94.3066C115.495 95.1688 115.278 96.3349 114.347 97.2655C113.416 98.1961 112.25 98.4136 111.388 98.4136H87.4523V107.92H115.955C116.817 107.92 117.984 108.138 118.914 109.068C119.845 109.999 120.062 111.165 120.062 112.027V121.619C120.062 122.481 119.845 123.647 118.914 124.578ZM115.955 110.749C116.808 110.749 117.234 111.175 117.234 112.027V121.619C117.234 122.471 116.808 122.897 115.955 122.897H73.0233C72.1708 122.897 71.7445 122.471 71.7445 121.619V58.2255C71.7445 57.373 72.1708 56.9467 73.0233 56.9467H115.59C116.442 56.9467 116.869 57.373 116.869 58.2255V67.8167C116.869 68.6692 116.442 69.0955 115.59 69.0955H84.6241V83.4366H111.388C112.241 83.4366 112.667 83.8629 112.667 84.7154V94.3066C112.667 95.1591 112.241 95.5854 111.388 95.5854H84.6241V110.749H115.955ZM139.22 122.105L139.213 122.1C134.069 118.894 130.045 114.453 127.145 108.852L127.136 108.834L127.127 108.816C124.291 103.144 122.901 96.8269 122.901 89.922C122.901 83.0178 124.291 76.7257 127.133 71.1072L127.139 71.0955L127.145 71.0838C130.043 65.4863 134.063 61.0483 139.202 57.8421C144.371 54.5557 150.199 52.931 156.603 52.931C163.419 52.931 169.291 54.4902 174.017 57.8193C178.647 60.978 182.165 65.2118 184.559 70.4545C184.885 71.1449 184.917 71.8252 184.917 72.2012C184.917 74.0175 183.787 75.224 182.64 75.861L182.524 75.9253L173.505 79.8829C173.049 80.1019 172.418 80.3274 171.675 80.3274C169.781 80.3274 168.651 79.0299 168.107 78.0506L168.089 78.0177L168.071 77.9844C166.773 75.4932 165.187 73.7654 163.367 72.6471C161.55 71.5306 159.332 70.9189 156.603 70.9189C154.004 70.9189 151.667 71.6316 149.52 73.0758C147.453 74.5065 145.723 76.599 144.381 79.4895C143.115 82.3469 142.442 85.7423 142.442 89.7393C142.442 93.8636 143.147 97.3477 144.472 100.261C145.814 103.214 147.572 105.331 149.69 106.76C151.85 108.216 154.163 108.925 156.695 108.925C159.619 108.925 161.96 108.246 163.847 107.012C165.74 105.773 167.365 103.853 168.651 101.068L168.669 101.028L168.689 100.989C169.086 100.194 169.789 99.3192 170.949 98.8918C172.079 98.4752 173.156 98.6653 173.949 98.9667C173.956 98.9693 173.963 98.9718 173.969 98.9744L183.087 102.348L183.104 102.354C183.857 102.644 184.814 103.204 185.387 104.287C185.99 105.426 185.879 106.584 185.594 107.441L185.572 107.507L185.547 107.572C183.226 113.539 179.567 118.304 174.559 121.755C169.505 125.238 163.472 126.913 156.603 126.913C150.26 126.913 144.445 125.32 139.227 122.109L139.22 122.105ZM172.954 101.614C172.162 101.31 171.584 101.523 171.219 102.254C168.296 108.587 163.454 111.753 156.695 111.753C153.589 111.753 150.727 110.87 148.108 109.104C145.49 107.338 143.419 104.781 141.897 101.431C140.375 98.0821 139.613 94.1848 139.613 89.7393C139.613 85.4157 140.344 81.6097 141.806 78.3213C143.328 75.0329 145.368 72.5057 147.926 70.7397C150.544 68.9737 153.437 68.0907 156.603 68.0907C162.937 68.0907 167.595 70.9529 170.579 76.6771C170.884 77.2252 171.249 77.4992 171.675 77.4992C171.858 77.4992 172.071 77.4383 172.315 77.3165L181.266 73.3887C181.815 73.0842 182.089 72.6884 182.089 72.2012C182.089 71.9576 182.058 71.7749 181.997 71.6532C179.805 66.8424 176.608 63.0059 172.406 60.1438C168.265 57.2207 162.998 55.7592 156.603 55.7592C150.697 55.7592 145.399 57.2512 140.71 60.2351C136.021 63.1581 132.336 67.2077 129.657 72.3839C127.038 77.5601 125.729 83.4061 125.729 89.922C125.729 96.4379 127.038 102.314 129.657 107.552C132.336 112.728 136.021 116.777 140.71 119.7C145.459 122.623 150.757 124.085 156.603 124.085C162.998 124.085 168.448 122.532 172.954 119.426C177.46 116.321 180.779 112.027 182.911 106.547C183.154 105.816 182.88 105.298 182.089 104.994L172.954 101.614ZM207.336 124.578C206.405 125.508 205.239 125.726 204.377 125.726H193.689C192.827 125.726 191.661 125.508 190.73 124.578C189.8 123.647 189.582 122.481 189.582 121.619V58.2255C189.582 57.3633 189.8 56.1972 190.73 55.2666C191.661 54.336 192.827 54.1185 193.689 54.1185H204.377C205.239 54.1185 206.405 54.336 207.336 55.2666C208.266 56.1972 208.484 57.3633 208.484 58.2255V79.8776H232.423V58.2255C232.423 57.3633 232.64 56.1972 233.571 55.2666C234.501 54.336 235.668 54.1185 236.53 54.1185H247.308C248.171 54.1185 249.337 54.336 250.267 55.2666C251.198 56.1972 251.416 57.3633 251.416 58.2255V121.619C251.416 122.481 251.198 123.647 250.267 124.578C249.337 125.508 248.171 125.726 247.308 125.726H236.53C235.668 125.726 234.501 125.508 233.571 124.578C232.64 123.647 232.423 122.481 232.423 121.619V97.9569H208.484V121.619C208.484 122.481 208.266 123.647 207.336 124.578ZM205.655 121.619C205.655 122.471 205.229 122.897 204.377 122.897H193.689C192.837 122.897 192.41 122.471 192.41 121.619V58.2255C192.41 57.373 192.837 56.9467 193.689 56.9467H204.377C205.229 56.9467 205.655 57.373 205.655 58.2255V82.7058H235.251V58.2255C235.251 57.373 235.677 56.9467 236.53 56.9467H247.308C248.161 56.9467 248.587 57.373 248.587 58.2255V121.619C248.587 122.471 248.161 122.897 247.308 122.897H236.53C235.677 122.897 235.251 122.471 235.251 121.619V95.1287H205.655V121.619Z" fill="#F5F0EB"/>
</svg>
